<svg id="icon_positionning_small" xmlns="http://www.w3.org/2000/svg" xmlns:xlink="http://www.w3.org/1999/xlink" width="72" height="72" viewBox="0 0 72 72">
  <defs>
    <clipPath id="clip-path">
      <rect id="Rectangle_1604" data-name="Rectangle 1604" width="47.548" height="37.937" transform="translate(0 0)" fill="#1e828f"/>
    </clipPath>
  </defs>
  <g id="Ellipse_416" data-name="Ellipse 416" fill="none" stroke="#32828f" stroke-width="2">
    <circle cx="36" cy="36" r="36" stroke="none"/>
    <circle cx="36" cy="36" r="35" fill="none"/>
  </g>
  <g id="Group_2573" data-name="Group 2573" transform="translate(12 17.031)">
    <g id="Group_2572" data-name="Group 2572" clip-path="url(#clip-path)">
      <path id="Path_1371" data-name="Path 1371" d="M10.885,3.118c.492-.167.916-.311,1.232-.433,1.5-.578,4.583.257,7.842,1.141.661.179,1.336.363,2.021.541A27.216,27.216,0,0,1,28.709,7.6c3.281,1.949,6.652,3.952,10.544,3.952a11.516,11.516,0,0,0,2.857-.364A33.431,33.431,0,0,0,46.8,9.678a1.25,1.25,0,0,0-1-2.293,31.805,31.805,0,0,1-4.309,1.384C37.346,9.825,33.771,7.7,29.985,5.454a29.392,29.392,0,0,0-7.376-3.507c-.676-.175-1.343-.357-2-.534C16.789.376,13.484-.52,11.219.352c-.292.112-.682.244-1.137.4C6.545,1.95,3,3.32,1.9,5.707a3.443,3.443,0,0,0-.064,2.778A4.214,4.214,0,0,0,3.3,10.251c-.2.291-.443.7-.842,1.372A7.681,7.681,0,0,0,1.288,15.5a16.478,16.478,0,0,1-.474,2.3,19.96,19.96,0,0,0-.43,1.961,9.762,9.762,0,0,0-.04,2.2c.02.289.04.57.033.865a10.889,10.889,0,0,1-.167,1.3,10.051,10.051,0,0,0-.2,2.144,6.318,6.318,0,0,0,3.465,5.578,1.268,1.268,0,0,0,.446.127,6.483,6.483,0,0,0,12.1,2.687.9.9,0,0,0,.1.034,12.629,12.629,0,0,0,1.454.068A25.15,25.15,0,0,0,26.042,33.2c1.444-.526,4.167-1.591,7.048-2.719,3.071-1.2,6.245-2.446,7.868-3.029,3-1.08,5.132-1.8,5.138-1.8a1.25,1.25,0,0,0-.8-2.368s-2.155.727-5.186,1.818c-1.653.6-4.845,1.845-7.931,3.053-2.868,1.123-5.576,2.184-6.991,2.7a22.1,22.1,0,0,1-8.325,1.4l2.1-15.115a11.293,11.293,0,0,0,2.326,3.35A1,1,0,0,0,22.7,19.066a10.672,10.672,0,0,1-2.793-5.435,5.632,5.632,0,0,0-.731-1.965,7.18,7.18,0,0,0-2.322-1.937c-.571-.339-.925-.559-.981-.8A3.375,3.375,0,0,0,12.75,6.167C12.385,6.125,11.276,6,7.366,7.955a3.227,3.227,0,0,1-1.458.331H5.864a.977.977,0,0,0-.535.177,1.73,1.73,0,0,1-1.171-.9.938.938,0,0,1,.009-.807c.746-1.613,4.78-2.981,6.718-3.638M2.5,26.087a9.239,9.239,0,0,1,.175-1.562,12.491,12.491,0,0,0,.2-1.646c.009-.372-.013-.727-.039-1.092a7.438,7.438,0,0,1,.021-1.674c.066-.461.218-1.064.379-1.7a18.04,18.04,0,0,0,.54-2.694,5.306,5.306,0,0,1,.827-2.82,11.794,11.794,0,0,1,.866-1.378.971.971,0,0,0,.147-.04c.357-.179.844-.44,1.4-.741,1.329-.714,4.873-2.618,5.651-2.541.635.151,1.045.735,1.217,1.737.384,2.237-.641,5.039-1.307,5.469a5.666,5.666,0,0,0-2.129,3.078,3.816,3.816,0,0,1-1.015,1.765,6.426,6.426,0,0,0-2.917,4.546,7.32,7.32,0,0,1-1.344,2.792c-.066.089-.135.177-.2.27-.154.2-.294.38-.395.495a1,1,0,0,0-.186.316l-.243.668A3.863,3.863,0,0,1,2.5,26.087m7.88,9.85a4.482,4.482,0,0,1-3.741-6.963c.035-.048.067-.087.1-.139a4.485,4.485,0,1,1,3.637,7.1m7.159-23.115L15.507,27.473a6.485,6.485,0,0,0-7.043-2.227c.01-.058.029-.115.037-.172a4.448,4.448,0,0,1,2.152-3.24,5.485,5.485,0,0,0,1.672-2.649,3.84,3.84,0,0,1,1.341-2.1c1.232-.8,2.16-3.224,2.287-5.562a5.153,5.153,0,0,1,1.589,1.3" fill="#1e828f"/>
    </g>
  </g>
</svg>
