<svg id="icon_bandage_small" xmlns="http://www.w3.org/2000/svg" xmlns:xlink="http://www.w3.org/1999/xlink" width="72" height="72" viewBox="0 0 72 72">
  <defs>
    <clipPath id="clip-path">
      <rect id="Rectangle_1608" data-name="Rectangle 1608" width="44" height="33.961" fill="#32828f"/>
    </clipPath>
  </defs>
  <g id="Group_2581" data-name="Group 2581" transform="translate(14 19.02)">
    <g id="Group_2581-2" data-name="Group 2581" clip-path="url(#clip-path)">
      <path id="Path_1378" data-name="Path 1378" d="M10.219,2.5h0a9.71,9.71,0,0,1,1.369.159C18.709,3.779,26.846,5.627,41,14.636l.144.09c.053.033.121.075.164.1.081.183.4,1.164-.042,4.457-.584,4.316-2.873,8.1-7,11.574a6.244,6.244,0,0,1-.7.527l0,0c-.054-.041-.109-.081-.166-.118l-1.9-1.234c-9.462-6.8-17.883-10.209-28.149-11.4-.372-.043-.651-.081-.861-.114,0-.189.006-.433.019-.749C2.764,8.777,6.99,4.924,8.581,3.474c.174-.159.322-.294.438-.408a1.5,1.5,0,0,1,1.2-.566m0-2.5A3.953,3.953,0,0,0,7.277,1.274C5.993,2.522.317,6.787.021,17.7c-.111,2.782.132,3.075,3.052,3.415C12.022,22.153,20.111,24.91,30.1,32.1l1.943,1.265a2.444,2.444,0,0,0,1.5.6,3.9,3.9,0,0,0,2.341-1.187c3.435-2.893,7.05-7.141,7.864-13.152s-.524-6.536-1.4-7.095C28.427,3.669,20.021,1.455,11.977.189A11.521,11.521,0,0,0,10.219,0" fill="#32828f"/>
      <path id="Path_1379" data-name="Path 1379" d="M19.794,8.3a.487.487,0,0,1,.065,0c.915.106,4.98,1.17,6.952,3.16a1.243,1.243,0,0,1,.3.6,27.591,27.591,0,0,1-3.53,7.27c-.228.312-.547.685-.773.685a3.829,3.829,0,0,1-.885-.193l-.192-.056a20.263,20.263,0,0,1-6.089-2.658c-.564-.409-.521-.572-.495-.67a22.78,22.78,0,0,1,3.886-7.594c.164-.207.48-.554.762-.554m0-2a3.043,3.043,0,0,0-2.33,1.314,24.828,24.828,0,0,0-4.253,8.327,2.506,2.506,0,0,0,1.256,2.794,24.026,24.026,0,0,0,6.883,3.013,5.187,5.187,0,0,0,1.457.277,2.907,2.907,0,0,0,2.388-1.5,29.624,29.624,0,0,0,3.839-7.9,2.867,2.867,0,0,0-.791-2.55C25.708,7.513,20.97,6.424,20.091,6.32a2.774,2.774,0,0,0-.3-.017" fill="#32828f"/>
    </g>
  </g>
  <g id="Ellipse_419" data-name="Ellipse 419" fill="none" stroke="#32828f" stroke-width="2">
    <circle cx="36" cy="36" r="36" stroke="none"/>
    <circle cx="36" cy="36" r="35" fill="none"/>
  </g>
</svg>
