<svg id="icon_scanning_small" xmlns="http://www.w3.org/2000/svg" xmlns:xlink="http://www.w3.org/1999/xlink" width="72" height="72" viewBox="0 0 72 72">
  <defs>
    <clipPath id="clip-path">
      <rect id="Rectangle_1605" data-name="Rectangle 1605" width="44" height="44" fill="#1e828f"/>
    </clipPath>
  </defs>
  <g id="Group_2576" data-name="Group 2576" transform="translate(14 14)">
    <g id="Group_2575" data-name="Group 2575" clip-path="url(#clip-path)">
      <path id="Path_1372" data-name="Path 1372" d="M42.536,35.465l-.011-.009h0l-10.5-10.5c.186-.352.357-.712.519-1.078q.117-.264.225-.534c.155-.384.3-.772.428-1.169.041-.128.074-.259.112-.388.108-.364.2-.734.285-1.108.028-.127.059-.252.084-.379.092-.465.163-.936.216-1.414.012-.112.021-.224.031-.336C33.968,18.036,34,17.522,34,17A17,17,0,1,0,17,34c.522,0,1.036-.031,1.545-.078.112-.01.224-.019.336-.031.478-.053.949-.124,1.414-.216.127-.025.252-.056.379-.084.374-.083.743-.177,1.108-.285.13-.038.261-.071.39-.113.4-.127.784-.272,1.168-.427q.268-.108.533-.225c.365-.162.726-.333,1.078-.519l10.5,10.5h0l.009.011a5,5,0,0,0,7.071-7.071M2.5,17a14.542,14.542,0,0,1,.3-2.918,14.369,14.369,0,0,1,.847-2.72q.275-.651.611-1.268A14.606,14.606,0,0,1,7.782,5.815Q8.319,5.372,8.9,4.98a14.46,14.46,0,0,1,16.2,0q.578.392,1.116.835a14.591,14.591,0,0,1,3.529,4.279q.336.617.612,1.268A14.421,14.421,0,0,1,31.5,17a14.888,14.888,0,0,1-.1,1.629c-.022.19-.058.375-.086.562-.053.348-.113.694-.191,1.036-.047.2-.1.406-.157.608q-.14.507-.317,1c-.061.172-.121.345-.188.514q-.254.631-.568,1.246c-.048.092-.086.189-.136.28l-.023.044a14.6,14.6,0,0,1-5.814,5.814l-.045.024c-.09.049-.185.087-.277.134q-.615.315-1.248.569c-.169.067-.341.127-.513.188q-.5.177-1.005.317c-.2.055-.4.11-.608.157-.342.078-.688.138-1.036.19-.187.029-.372.065-.562.087A14.9,14.9,0,0,1,17,31.5,14.516,14.516,0,0,1,2.5,17M40.768,40.768a2.5,2.5,0,0,1-3.49.044l-.04-.04-1.821-1.85-.015.016L27.11,30.645a17.049,17.049,0,0,0,3.535-3.536l9.959,9.96.141.142.09.091a2.5,2.5,0,0,1-.067,3.466" fill="#1e828f"/>
      <path id="Path_1373" data-name="Path 1373" d="M14.826,24.62A8.4,8.4,0,0,1,9.57,19.715a1,1,0,1,0-1.861.731,10.417,10.417,0,0,0,6.517,6.082,1.019,1.019,0,0,0,.3.047,1,1,0,0,0,.3-1.955" fill="#1e828f"/>
    </g>
  </g>
  <g id="Ellipse_417" data-name="Ellipse 417" fill="none" stroke="#32828f" stroke-width="2">
    <circle cx="36" cy="36" r="36" stroke="none"/>
    <circle cx="36" cy="36" r="35" fill="none"/>
  </g>
</svg>
